<svg xmlns="http://www.w3.org/2000/svg" viewBox="0 0 40 40" width="16" height="16" fill="whitesmoke">
    <path class="st46" d="M20.9 8.8c-.3.5-.6 1.1-.8 1.6-.3.8 0 1.7.7 2.1.8.5 1.9.2 2.4-.6.1-.1.1-.2.2-.3.1-.3.3-.6.5-.9 1.8-2.5 7-3.2 9.4-1.5 2.5 1.7 3 5 1.2 7.5-.7 1-1.6 1.8-2.9 2.2l-4.5 1 1.5-1.7c.4-.6.3-1.5-.3-1.9-.6-.4-1.5-.3-1.9.3L22 21.3c-.3.5-.9.9-.1 1.5l5.4 4.6c.6.4 1.5.3 1.9-.3.4-.6.3-1.5-.3-1.9l-2-1.7 5.2-1.1c2-.5 3.9-1.8 5-3.6 2.9-4.1 2-9.6-2-12.4-4-2.8-11.4-1.7-14.2 2.4zM18.1 30.2c.3-.5.6-1.1.8-1.6.3-.8 0-1.7-.7-2.1-.8-.5-1.9-.2-2.4.6-.1.1-.1.2-.2.3-.1.3-.3.6-.5.9-1.8 2.5-6 3.2-8.4 1.5-2.5-1.7-3-5-1.2-7.5.7-1 1.6-1.8 2.9-2.2l4.5-1-1.5 1.7c-.4.6-.3 1.5.3 1.9.6.4 1.5.3 1.9-.3l4.2-4.6c.3-.5.9-.9.1-1.5l-5.4-4.6c-.6-.4-1.5-.3-1.9.3-.4.6-.3 1.5.3 1.9l2 1.7-5.2 1.1c-2 .5-3.9 1.8-5 3.6-2.9 4.1-2 9.6 2 12.4 4.2 2.7 10.6 1.6 13.4-2.5z"/>
</svg>